<svg xmlns="http://www.w3.org/2000/svg" width="16" height="17" viewBox="0 0 16 17" fill="none">
  <path d="M8.92396 0.579103C9.15666 0.579103 9.36481 0.723942 9.44317 0.940805L10.0019 2.48971C10.2022 2.53958 10.3739 2.58944 10.5196 2.64168C10.6787 2.69866 10.8836 2.78493 11.1369 2.90286L12.4381 2.21428C12.5443 2.15801 12.6659 2.1377 12.7846 2.1564C12.9034 2.17509 13.0128 2.23178 13.0966 2.31796L14.2411 3.50121C14.393 3.65872 14.4358 3.88903 14.3503 4.09007L13.7401 5.52025C13.8414 5.70625 13.9221 5.86534 13.9838 5.9983C14.0503 6.14314 14.1326 6.34259 14.2308 6.59982L15.653 7.20925C15.8667 7.30027 15.9989 7.51397 15.9847 7.7427L15.8802 9.38501C15.8731 9.4917 15.8348 9.59395 15.77 9.67907C15.7053 9.76419 15.617 9.82844 15.5161 9.86384L14.169 10.3427C14.1303 10.5287 14.0899 10.6878 14.0472 10.8223C13.9782 11.0301 13.8995 11.2345 13.8113 11.4349L14.488 12.9308C14.5358 13.0359 14.5486 13.1535 14.5247 13.2665C14.5008 13.3794 14.4413 13.4817 14.355 13.5584L13.0681 14.7076C12.9834 14.783 12.8776 14.8307 12.765 14.8443C12.6524 14.8578 12.5383 14.8367 12.4381 14.7836L11.1116 14.0808C10.9041 14.1907 10.69 14.2877 10.4705 14.3713L9.89114 14.5881L9.37669 16.0128C9.33856 16.1171 9.26979 16.2075 9.1794 16.272C9.089 16.3366 8.9812 16.3723 8.87014 16.3745L7.36635 16.4085C7.25235 16.4115 7.14022 16.3791 7.0454 16.3157C6.95058 16.2524 6.87772 16.1612 6.83686 16.0547L6.23059 14.4504C6.02374 14.3797 5.81893 14.3032 5.61641 14.2209C5.45077 14.1492 5.28763 14.0719 5.12728 13.989L3.62349 14.6317C3.5244 14.6739 3.41516 14.6865 3.30907 14.6678C3.20297 14.6491 3.1046 14.6 3.02593 14.5264L1.91312 13.4824C1.83027 13.4051 1.77384 13.3036 1.75183 13.1924C1.72981 13.0812 1.74332 12.9658 1.79044 12.8627L2.43707 11.4539C2.35107 11.287 2.27134 11.117 2.19805 10.9442C2.11249 10.7327 2.03331 10.5186 1.96061 10.3023L0.543873 9.87097C0.428715 9.83616 0.328272 9.7643 0.258144 9.66655C0.188016 9.5688 0.152128 9.45063 0.156053 9.33039L0.211456 7.80998C0.215399 7.71078 0.246388 7.61454 0.301072 7.53168C0.355756 7.44882 0.432053 7.38248 0.521712 7.33984L2.00809 6.62594C2.07695 6.37346 2.1371 6.17717 2.19013 6.03392C2.2648 5.84258 2.34772 5.65456 2.43865 5.47039L1.7944 4.10906C1.7455 4.00568 1.73066 3.88946 1.75199 3.77711C1.77332 3.66476 1.82974 3.56206 1.91312 3.4838L3.02434 2.43431C3.10224 2.36084 3.19971 2.31144 3.30502 2.29207C3.41033 2.27269 3.519 2.28416 3.61795 2.32509L5.12016 2.9456C5.28637 2.83479 5.43674 2.74536 5.57288 2.67333C5.73513 2.58706 5.95199 2.49684 6.22505 2.39949L6.74742 0.942388C6.78604 0.835752 6.85663 0.743635 6.94956 0.678615C7.04248 0.613596 7.15321 0.578843 7.26662 0.579103H8.92396ZM8.08975 6.13444C6.77037 6.13444 5.7011 7.19105 5.7011 8.49539C5.7011 9.79974 6.77037 10.8571 8.08975 10.8571C9.40834 10.8571 10.4776 9.79974 10.4776 8.49539C10.4776 7.19105 9.40914 6.13444 8.08975 6.13444Z" fill="#0060FF"/>
</svg>