<svg width="24" height="24" viewBox="0 0 24 24" fill="none" xmlns="http://www.w3.org/2000/svg">
    <path fill-rule="evenodd" clip-rule="evenodd" d="M22 2H13V4H18.5858L10.2929 12.2929C9.90237 12.6834 9.90237 13.3166 10.2929 13.7071C10.6834 14.0976 11.3166 14.0976 11.7071 13.7071L20 5.41421V11H22V2Z" fill="#898989"></path>
    <path fill-rule="evenodd" clip-rule="evenodd" d="M6.90036 5.04616C7.39907 5.00096 8.04698 5 9 5C9.55228 5 10 4.55229 10 4C10 3.44772 9.55228 3 9 3L8.95396 3C8.05849 2.99998 7.31952 2.99997 6.71983 3.05432C6.09615 3.11085 5.52564 3.23242 5 3.5359C4.39192 3.88697 3.88697 4.39192 3.5359 5C3.23242 5.52564 3.11085 6.09615 3.05432 6.71983C2.99997 7.31953 2.99998 8.05851 3 8.95399V14.0705C2.99996 15.4247 2.99993 16.5413 3.11875 17.4251C3.24349 18.3529 3.51546 19.1723 4.17157 19.8284C4.82768 20.4845 5.64711 20.7565 6.57494 20.8813C7.4587 21.0001 8.57532 21 9.92945 21H15.046C15.9415 21 16.6805 21 17.2802 20.9457C17.9039 20.8892 18.4744 20.7676 19 20.4641C19.6081 20.113 20.113 19.6081 20.4641 19C20.7676 18.4744 20.8891 17.9039 20.9457 17.2802C21 16.6805 21 15.9415 21 15.046L21 15C21 14.4477 20.5523 14 20 14C19.4477 14 19 14.4477 19 15C19 15.953 18.999 16.6009 18.9538 17.0996C18.9099 17.5846 18.8305 17.8295 18.732 18C18.5565 18.304 18.304 18.5565 18 18.7321C17.8295 18.8305 17.5846 18.9099 17.0996 18.9538C16.6009 18.999 15.953 19 15 19H10C8.55752 19 7.57625 18.9979 6.84143 18.8991C6.13538 18.8042 5.80836 18.6368 5.58579 18.4142C5.36321 18.1916 5.19584 17.8646 5.10092 17.1586C5.00212 16.4237 5 15.4425 5 14V9C5 8.04698 5.00096 7.39908 5.04616 6.90036C5.09011 6.41539 5.1695 6.17051 5.26795 6C5.44348 5.69596 5.69596 5.44349 6 5.26795C6.17051 5.16951 6.41539 5.09011 6.90036 5.04616Z" fill="#898989"></path>
</svg>