<svg width="16" height="16" viewBox="0 0 16 16" fill="none" xmlns="http://www.w3.org/2000/svg">
    <path d="M1.03517 8.94988H6.31164C6.79532 8.94988 7.19106 8.55414 7.19106 8.07047V1.03517C7.19106 0.551497 6.79532 0.155762 6.31164 0.155762H1.03517C0.551497 0.155762 0.155762 0.551497 0.155762 1.03517V8.07047C0.155762 8.55414 0.551497 8.94988 1.03517 8.94988ZM1.03517 15.9852H6.31164C6.79532 15.9852 7.19106 15.5894 7.19106 15.1058V11.5881C7.19106 11.1044 6.79532 10.7087 6.31164 10.7087H1.03517C0.551497 10.7087 0.155762 11.1044 0.155762 11.5881V15.1058C0.155762 15.5894 0.551497 15.9852 1.03517 15.9852ZM9.82929 15.9852H15.1058C15.5894 15.9852 15.9852 15.5894 15.9852 15.1058V8.07047C15.9852 7.58679 15.5894 7.19106 15.1058 7.19106H9.82929C9.34561 7.19106 8.94988 7.58679 8.94988 8.07047V15.1058C8.94988 15.5894 9.34561 15.9852 9.82929 15.9852ZM8.94988 1.03517V4.55282C8.94988 5.0365 9.34561 5.43223 9.82929 5.43223H15.1058C15.5894 5.43223 15.9852 5.0365 15.9852 4.55282V1.03517C15.9852 0.551497 15.5894 0.155762 15.1058 0.155762H9.82929C9.34561 0.155762 8.94988 0.551497 8.94988 1.03517Z" fill="#0060FF"/>
</svg>
