<svg xmlns="http://www.w3.org/2000/svg" width="16" height="16" viewBox="0 0 16 16" fill="none">
  <path d="M8.07068 3.32178C7.24521 3.32282 6.45385 3.6512 5.87015 4.2349C5.28646 4.81859 4.95808 5.60995 4.95703 6.43542H6.53997C6.53997 5.59092 7.22697 4.90472 8.07068 4.90472C8.91438 4.90472 9.60138 5.59092 9.60138 6.43542C9.60138 6.90872 9.22068 7.25222 8.63895 7.72235C8.44891 7.87123 8.26638 8.02945 8.09205 8.19645C7.30216 8.98554 7.27921 9.82371 7.27921 9.9171V10.445H8.86215L8.86136 9.94401C8.86215 9.93135 8.88747 9.6385 9.21039 9.31638C9.32911 9.19766 9.4787 9.07893 9.63383 8.95388C10.2504 8.45446 11.1835 7.70019 11.1835 6.43542C11.1829 5.60996 10.8548 4.81848 10.2712 4.23472C9.68754 3.65095 8.89614 3.32262 8.07068 3.32178ZM7.27921 11.2365H8.86215V12.8194H7.27921V11.2365Z" fill="black"/>
  <path d="M8.07047 0.155762C3.7063 0.155762 0.155762 3.7063 0.155762 8.07047C0.155762 12.4346 3.7063 15.9852 8.07047 15.9852C12.4346 15.9852 15.9852 12.4346 15.9852 8.07047C15.9852 3.7063 12.4346 0.155762 8.07047 0.155762ZM8.07047 14.4022C4.57929 14.4022 1.7387 11.5616 1.7387 8.07047C1.7387 4.57929 4.57929 1.7387 8.07047 1.7387C11.5616 1.7387 14.4022 4.57929 14.4022 8.07047C14.4022 11.5616 11.5616 14.4022 8.07047 14.4022Z" fill="black"/>
</svg>