<svg width="24" height="24" viewBox="0 0 24 24" fill="none" xmlns="http://www.w3.org/2000/svg">
    <path fill-rule="evenodd" clip-rule="evenodd" d="M16.9498 5.63603C17.3403 5.24551 17.9734 5.24551 18.364 5.63603C19.6226 6.89471 20.4798 8.49835 20.8271 10.2442C21.1743 11.99 20.9961 13.7996 20.3149 15.4441C19.6337 17.0887 18.4802 18.4943 17.0001 19.4832C15.5201 20.4722 13.78 21 12 21C10.22 21 8.47991 20.4722 6.99987 19.4832C5.51983 18.4943 4.36628 17.0887 3.68509 15.4441C3.0039 13.7996 2.82567 11.99 3.17294 10.2442C3.5202 8.49835 4.37737 6.89471 5.63604 5.63603C6.02657 5.24551 6.65973 5.24551 7.05026 5.63603C7.44078 6.02656 7.44078 6.65972 7.05026 7.05025C6.07129 8.02921 5.4046 9.2765 5.13451 10.6344C4.86441 11.9922 5.00303 13.3997 5.53285 14.6788C6.06266 15.9579 6.95987 17.0511 8.11101 17.8203C9.26216 18.5895 10.6155 19 12 19C13.3845 19 14.7379 18.5895 15.889 17.8203C17.0401 17.0511 17.9373 15.9579 18.4672 14.6788C18.997 13.3997 19.1356 11.9922 18.8655 10.6344C18.5954 9.27649 17.9287 8.02921 16.9498 7.05025C16.5592 6.65972 16.5592 6.02656 16.9498 5.63603Z" fill="#898989"></path>
    <path fill-rule="evenodd" clip-rule="evenodd" d="M12 3C12.5523 3 13 3.44772 13 4L13 8C13 8.55228 12.5523 9 12 9C11.4477 9 11 8.55228 11 8L11 4C11 3.44772 11.4477 3 12 3Z" fill="#898989"></path>
</svg>