<svg xmlns="http://www.w3.org/2000/svg" width="17" height="17" viewBox="0 0 17 17" fill="none">
  <path d="M16.509 6.551C16.5868 6.3633 16.6071 6.15676 16.5674 5.9575C16.5278 5.75825 16.4299 5.57524 16.2862 5.43163L11.1514 0.296875L9.69933 1.74898L13.0811 5.13073H0.155881V7.18463H15.5601C15.7632 7.18468 15.9618 7.12451 16.1307 7.01173C16.2996 6.89894 16.4312 6.73861 16.509 6.551V6.551ZM0.233929 9.87216C0.156184 10.0599 0.135859 10.2664 0.175527 10.4657C0.215195 10.6649 0.313073 10.8479 0.456777 10.9915L5.59153 16.1263L7.04364 14.6742L3.66189 11.2924H16.5871V9.23853H1.18283C0.979705 9.23834 0.781095 9.29846 0.612168 9.41126C0.443241 9.52406 0.311601 9.68447 0.233929 9.87216V9.87216Z" fill="#0060FF"/>
</svg>